/* XPM */
static char *_cc8c52e132d4db6f2a18642641866ebtzJkNkv4ye75h64D[] = {
/* columns rows colors chars-per-pixel */
"64 64 17 1 ",
"  c black",
". c #7E0A57",
"X c #0B5B45",
"o c gray43",
"O c #E4152C",
"+ c #AF1246",
"@ c #812C49",
"# c #B75364",
"$ c #218D57",
"% c #3CBE52",
"& c #F09C18",
"* c #FFDE36",
"= c #DD936E",
"- c gray55",
"; c gray61",
": c #F0C090",
"> c #99D9EA",
/* pixels */
"                         ================                       ",
"                         ================                       ",
"                         ================                       ",
"ooooooooooooooooooo===:::======================----oooooooooo---",
"ooooooooooooooooooo===:::======================----oooooooooo---",
"ooooooooooooo============:::=========================oooooooo---",
"ooooooooooooo============:::=========================oooooooo---",
">>>>>>>>>>---============:::=========================>>>>>>>>---",
">>>>>>>>>>==================================:::=========>>>>>---",
">>>>>>>>>>==================================:::=========>>>>>---",
">>>>>>>>>>===============:::=============:::============>>>>>---",
">>>>>>>>>>===============:::=============:::============oooooooo",
">>>>>>>>>>===============:::=============:::============oooooooo",
">>>>>>>===============:::==================================ooooo",
">>>>>>>===============:::==================================ooooo",
">>>>>>>======:::===============::::============:::===:::===ooooo",
">>>>>>>======:::===============::::============:::===:::===ooooo",
">>>>>>>======:::===============::::============:::===:::===ooooo",
">>>>======:::======================:::============:::===:::===oo",
">>>>======:::======================:::============:::===:::===oo",
">>>>=====================:::================:::===============oo",
">>>>=====================:::================:::===============oo",
">>>>=====================:::================:::===============oo",
">XXX###############=========:::==========:::===############@@@oo",
">XXX###############=========:::==========:::===############@@@oo",
">XXXXXX@@@@@@@@@@@@#####################################@@@XXXXX",
"oXXXXXX@@@@@@@@@@@@#####################################@@@XXXXX",
"oXXXXXX@@@@@@@@@@@@#####################################@@@XXXXX",
"%%%%XXXXXXXXXXXXXXX@@@@@@@@@@@@@@@@@@@@@@@@@@@@@@@@@@@@@XXX%%%%%",
"%%%%XXXXXXXXXXXXXXX@@@@@@@@@@@@@@@@@@@@@@@@@@@@@@@@@@@@@XXX%%%%%",
"%%%%$$$%%%%%%$$$XXXXXXXXXXXXXXXXXXXXXXXXXXXXXXXXXX$$$%%%$$$$$$%%",
"%%%%$$$%%%%%%$$$XXXXXXXXXXXXXXXXXXXXXXXXXXXXXXXXXX$$$%%%$$$$$$%%",
"%%%%$$$%%%%%%$$$XXXXXXXXXXXXXXXXXXXXXXXXXXXXXXXXXX$$$%%%$$$$$$%%",
"oooo%%%%%%%%%%%%$$$$$$%%%%%%$$$$$$$%%%$$$%%%%%%$$$%%%%%%%%%%%%--",
"oooo%%%%%%%%%%%%$$$$$$%%%%%%$$$$$$$%%%$$$%%%%%%$$$%%%%%%%%%%%%--",
"oooo...%%%%%%$$$$$$%%%%%%%%%$$$%%%%%%%$$$%%%%%%$$$%%%%%%......--",
"oooo...%%%%%%$$$$$$%%%%%%%%%$$$%%%%%%%$$$%%%%%%$$$%%%%%%......--",
"oooo...%%%%%%$$$$$$%%%%%%%%%$$$%%%%%%%$$$%%%%%%$$$%%%%%%......--",
";;;;.........%%%......%%%%%%...%%%%%%%%%%%%%%%%...............oo",
";;;;.........%%%......%%%%%%...%%%%%%%%%%%%%%%%...............oo",
";;;;&&&***......OOOOOO+++++++++++++++++++%%%+++++++++OOO@@@...oo",
";;;;&&&***......OOOOOO+++++++++++++++++++%%%+++++++++OOO@@@...oo",
">>>>&&&***......OOOOOO+++++++++++++++++++%%%+++++++++OOO@@@...oo",
">>>>@@@&&&***OOO++++++OOOOOO+++++++OOOOOO++++++OOOOOO******###oo",
">>>>@@@&&&***OOO++++++OOOOOO+++++++OOOOOO++++++OOOOOO******###oo",
">>>>@@@###&&&******OOOOOOOOOOOOOOOOOOOOOOOOOOOO******&&&@@@@@@oo",
"----@@@###&&&******OOOOOOOOOOOOOOOOOOOOOOOOOOOO******&&&@@@@@@oo",
"----@@@###&&&******OOOOOOOOOOOOOOOOOOOOOOOOOOOO******&&&@@@@@@oo",
"----@@@@@@###&&&&&&****************************&&&######@@@@@@oo",
"oooo@@@@@@###&&&&&&****************************&&&######@@@@@@--",
"oooo===@@@@@@&&&&&&&&&&&&&&&###################@@@@@@@@@@@@===--",
"oooo===@@@@@@&&&&&&&&&&&&&&&###################@@@@@@@@@@@@===--",
"oooo===@@@@@@&&&&&&&&&&&&&&&###################@@@@@@@@@@@@===--",
">>>>###===@@@&&&@@@@@@@@@@@@@@@@@@@@@@@@@@@@@@@@@@@@@======###--",
">>>>###===@@@&&&@@@@@@@@@@@@@@@@@@@@@@@@@@@@@@@@@@@@@======###--",
">>>>######=========@@@@@@@@@@@@@@@@@@@@@@@@@@@@======#########--",
">>>>######=========@@@@@@@@@@@@@@@@@@@@@@@@@@@@======#########--",
">>>>######=========@@@@@@@@@@@@@@@@@@@@@@@@@@@@======#########;;",
">>>>>>>#########===============================############>>;;;",
">>>>>>>#########===============================############>>;;;",
">>>>>>>>>>>>>>>>##################################>>>>>>>>>>>;;;",
"                ##################################              ",
"                ##################################              ",
"                                                                "
};
