/* XPM */
static char *result[] = {
/* columns rows colors chars-per-pixel */
"64 64 15 1 ",
"  c black",
". c #012E44",
"X c gray43",
"o c #AE2929",
"O c #F87319",
"+ c #F04830",
"@ c #56CC29",
"# c #E1D208",
"$ c #FFD800",
"% c #088CA1",
"& c #02C7C9",
"* c gray55",
"= c gray61",
"- c #99D9EA",
"; c white",
/* pixels */
"                                                                ",
"                                                                ",
"                              ........                          ",
"XXXXXXXXXXXXXXXXXXX-----****XX........XXXX*********XXXXXXXXXX***",
"XXXXXXXXXXXXXXXXXXX-----**....$$$$####...X*********XXXXXXXXXX***",
"XXXXXXXXXXXXXXXXXXX-----**....########...X*********XXXXXXXXXX***",
"XXXXXXXXXXXXXXXXXXX-----**....########...X*********XXXXXXXXXX***",
"----------*********XXXXX==....####@@@@...X-------------------***",
"----------*********XXXXX==....####@@@@...X-------------------***",
"--------.......****XXXX...;;;;@@@@@@@@...X-------.......-----***",
"----....$$$$;;;....XXXX...$$$$@@@@@@@@...X---....$$$&&&&....-***",
"----....$$$$;;;....XXXX...$$$$@@@@@@@@...X---....$$$&&&&....XXXX",
"--------....$$$;;;;....&&&;;;;@@@@@@@@%%%....;;;;&&&....XXXXXXXX",
"--------....$$$;;;;....&&&;;;;@@@@@@@@%%%....;;;;&&&....XXXXXXXX",
"--------....&&&$$$$$$$$...$$$$@@@@@@@@...&&&&@@@@%%%....XXXXXXXX",
"------------...&&&&@@@@...@@@@&&&&&&&&...&&&&%%%%...****XXXXXXXX",
"------------...&&&&@@@@...@@@@&&&&&&&&...&&&&%%%%...****XXXXXXXX",
"-..............%%%%%%%%...%%%%%%%%%%%%...%%%%%%%%..............X",
"-..............%%%%%%%%...%%%%%%%%%%%%...%%%%%%%%..............X",
".;;;$$$$$$$$;;;$$$$....&&&............&&&....$$$$$$$&&&&&&&&&&&.",
"-.......&&&&&&&@@@@%%%%...;;;;$$$$####...&&&&@@@@%%%%%%%.......X",
"-.......&&&&&&&@@@@%%%%...;;;;$$$$####...&&&&@@@@%%%%%%%.......X",
"--------....%%%%%%%%%%%...@@@@%%%%%%%%...&&&&%%%%%%%....=====XXX",
"--------....%%%%%%%%%%%...@@@@%%%%%%%%...&&&&%%%%%%%....=====XXX",
"------------.......%%%%...%%%%........%%%%%%%.......XXXX=====XXX",
"--------....$$$&&&&..........................%%%%@@@....=====XXX",
"XXXXX---....$$$&&&&..........................%%%%@@@....=====XXX",
"XXXX....%%%%%%%%%%%....;;;$$$$&&&&&&&&@@@....%%%%%%%%%%%....=XXX",
"XXXX....%%%%%%%%%%%....;;;$$$$&&&&&&&&@@@....%%%%%%%%%%%....=XXX",
"XXXX...................$$$............&&&...................=XXX",
"XXXXX-------.......$$$$...OOOOOOOOOOOO...OOOO.......---------***",
"XXXXX-------.......$$$$...OOOOOOOOOOOO...OOOO.......---------***",
"XXXXX-------...;;;;$$$$...;;;;$$$$####...ooooOOOO...---------***",
"XXXXX-------...;;;;$$$$...;;;;$$$$####...ooooOOOO...---------***",
"XXXXXXXX....;;;++++;;;;$$$OOOO++++++++$$$OOOOOOOO+++....-----***",
"XXXXXXXX....;;;++++;;;;$$$OOOO++++++++$$$OOOOOOOO+++....-----***",
"XXXXXXXX....;;;$$$$$$$$$$$;;;;;;;;;;;;OOO$$$$ooooOOO....-----***",
"XXXX....;;;;$$$;;;;$$$$+++$$$$$$$$$$$$OOO++++OOOO+++OOOO....-***",
"====....;;;;$$$;;;;$$$$+++$$$$$$$$$$$$OOO++++OOOO+++OOOO....-XXX",
"====....;;;;+++;;;;$$$$+++$$$$$$$$$$$$+++$$$$OOOOoooOOOO....-XXX",
"====....;;;;+++;;;;$$$$+++$$$$$$$$$$$$+++$$$$OOOOoooOOOO....-XXX",
"====....$$$$;;;$$$$OOOO;;;;;;;OOOOOOOO;;;OOOO++++OOO++++....-XXX",
"----....++++$$$OOOO++++$$$$$$$++++++++$$$OOOO++++OOOoooo....XXXX",
"----....++++$$$OOOO++++$$$$$$$++++++++$$$OOOO++++OOOoooo....XXXX",
"----....$$$$+++;;;;$$$$+++;;;;$$$$$$$$+++$$$$OOOOoooOOOO....XXXX",
"----....$$$$+++;;;;$$$$+++;;;;$$$$$$$$+++$$$$OOOOoooOOOO....XXXX",
"****....OOOO;;;$$$$OOOO+++$$$$$$$$$$$$+++OOOO++++OOOoooo....XXXX",
"****....$$$$$$$++++;;;;$$$$$$$++++++++$$$$$$$OOOOoooOOOO....XXXX",
"****....$$$$$$$++++;;;;$$$$$$$++++++++$$$$$$$OOOOoooOOOO....XXXX",
"XXXX....++++$$$;;;;$$$$OOO++++$$$$$$$$+++OOOOooooOOOoooo....-***",
"XXXX....++++$$$;;;;$$$$OOO++++$$$$$$$$+++OOOOooooOOOoooo....-***",
"XXXX....OOOO+++$$$$++++$$$$$$$++++++++$$$ooooOOOOoooOOOO....-***",
"XXXXX***....OOO++++$$$$+++OOOOOOOO++++oooOOOOoooo+++oooo-----***",
"--------....OOO++++$$$$+++OOOOOOOO++++oooOOOOoooo+++oooo-----***",
"--------....OOO++++$$$$+++OOOOOOOOOOOOoooOOOOooooOOO....-----***",
"--------....OOO++++$$$$+++OOOOOOOOOOOOoooOOOOooooOOO....-----***",
"------------...OOOOooooOOOooooooooooooOOOooooOOOO...---------***",
"---------------..................................------------===",
"---------------..................................------------===",
"------------------------*********XXXX------------------------===",
"------------------------*********XXXX------------------------===",
"                                                                ",
"                                                                ",
"                                                                "
};
