/* XPM */
static char *bfc3aad7577b4560cb1a202ee31533e0j02zdyn4zcZMCxS2[] = {
/* columns rows colors chars-per-pixel */
"64 64 5 1 ",
"  c black",
". c gray43",
"X c gray55",
"o c gray61",
"O c #99D9EA",
/* pixels */
"                                                                ",
"                                                                ",
"                                                                ",
"...................OOOOOXXXX..............XXXXXXXXX..........XXX",
"...................OOOOOXXXX..............XXXXXXXXX..........XXX",
"...................OOOOOXXXX..............XXXXXXXXX..........XXX",
"...................OOOOOXXXX..............XXXXXXXXX..........XXX",
"OOOOOOOOOOXXXXXXXXX.....ooooooooo.........OOOOOOOOOOOOOOOOOOOXXX",
"OOOOOOOOOOXXXXXXXXX.....ooooooooo.........OOOOOOOOOOOOOOOOOOOXXX",
"OOOOOOOOOOXXXXXXXXX.....ooooooooo.........OOOOOOOOOOOOOOOOOOOXXX",
"OOOOOOOOOOXXXXXXXXX.....ooooooooo.........OOOOOOOOOOOOOOOOOOOXXX",
"OOOOOOOOOOOOOOXXXXX.....OOOOooooooooo.....OOOOOOOOOOOOOO........",
"OOOOOOOOOOOOOOXXXXX.....OOOOooooooooo.....OOOOOOOOOOOOOO........",
"OOOOOOOOOOOOOOXXXXX.....OOOOooooooooo.....OOOOOOOOOOOOOO........",
"OOOOOOOOOOOOOOXXXXX.....OOOOooooooooo.....OOOOOOOOOOOOOO........",
"OOOOOOOOOOOOOO..............OOOOOoooo..........OOOOXXXXX........",
"OOOOOOOOOOOOOO..............OOOOOoooo..........OOOOXXXXX........",
"OOOOOOOOOOOOOO..............OOOOOoooo..........OOOOXXXXX........",
"OOOOO.........OOOOOXXXXX....OOOOOXXXX...........................",
"OOOOO.........OOOOOXXXXX....OOOOOXXXX...........................",
"OOOOO.........OOOOOXXXXX....OOOOOXXXX...........................",
"OOOOO.........OOOOOXXXXX....OOOOOXXXX...........................",
"OOOOOOOOOOOOOOOOOOOOOOOO..................OOOOOXXXX.....ooooo...",
"OOOOOOOOOOOOOOOOOOOOOOOO..................OOOOOXXXX.....ooooo...",
"OOOOOOOOOOOOOOOOOOOOOOOO..................OOOOOXXXX.....ooooo...",
"OOOOOOOOOOOOOOOOOOOOOOOO..................OOOOOXXXX.....ooooo...",
".....OOOOOOOOOOOOOOOOOOO.............OOOOOOOOOOOOOOOOOOOooooo...",
".....OOOOOOOOOOOOOOOOOOO.............OOOOOOOOOOOOOOOOOOOooooo...",
".....OOOOOOOOOOOOOOOOOOO.............OOOOOOOOOOOOOOOOOOOooooo...",
".....OOOOOOOOOOOOOOOOOOO.............OOOOOOOOOOOOOOOOOOOooooo...",
".....OOOOOOOOOOOOOOOOOOOXXXX..............OOOOOOOOOOOOOOOOOOOXXX",
".....OOOOOOOOOOOOOOOOOOOXXXX..............OOOOOOOOOOOOOOOOOOOXXX",
".....OOOOOOOOOOOOOOOOOOOXXXX..............OOOOOOOOOOOOOOOOOOOXXX",
".....OOOOOOOOOOOOOOOOOOOXXXX..............OOOOOOOOOOOOOOOOOOOXXX",
"..............OOOOOXXXXX....XXXXX.........OOOOOOOOOOOOOOOOOOOXXX",
"..............OOOOOXXXXX....XXXXX.........OOOOOOOOOOOOOOOOOOOXXX",
"..............OOOOOXXXXX....XXXXX.........OOOOOOOOOOOOOOOOOOOXXX",
"..............OOOOOXXXXX....XXXXX.........OOOOOOOOOOOOOOOOOOOXXX",
"ooooo...................OOOOOOOOO..............OOOOOOOOOOOOOO...",
"ooooo...................OOOOOOOOO..............OOOOOOOOOOOOOO...",
"ooooo...................OOOOOOOOO..............OOOOOOOOOOOOOO...",
"ooooo...................OOOOOOOOO..............OOOOOOOOOOOOOO...",
"OOOOOOOOOOXXXX.....OOOOOOOOOOOOOOOOOO...........................",
"OOOOOOOOOOXXXX.....OOOOOOOOOOOOOOOOOO...........................",
"OOOOOOOOOOXXXX.....OOOOOOOOOOOOOOOOOO...........................",
"OOOOOOOOOOXXXX.....OOOOOOOOOOOOOOOOOO...........................",
"XXXXX..............OOOOOOOOOOOOOOXXXX.....XXXXXXXXXXXXXX........",
"XXXXX..............OOOOOOOOOOOOOOXXXX.....XXXXXXXXXXXXXX........",
"XXXXX..............OOOOOOOOOOOOOOXXXX.....XXXXXXXXXXXXXX........",
".....XXXXXXXXXXXXXX.....OOOOOOOOOXXXX.....OOOOOOOOOOOOOOOOOOOXXX",
".....XXXXXXXXXXXXXX.....OOOOOOOOOXXXX.....OOOOOOOOOOOOOOOOOOOXXX",
".....XXXXXXXXXXXXXX.....OOOOOOOOOXXXX.....OOOOOOOOOOOOOOOOOOOXXX",
".....XXXXXXXXXXXXXX.....OOOOOOOOOXXXX.....OOOOOOOOOOOOOOOOOOOXXX",
"OOOOOOOOOOOOOOXXXXXXXXXX.............OOOOOOOOOOOOOOOOOOOOOOOOXXX",
"OOOOOOOOOOOOOOXXXXXXXXXX.............OOOOOOOOOOOOOOOOOOOOOOOOXXX",
"OOOOOOOOOOOOOOXXXXXXXXXX.............OOOOOOOOOOOOOOOOOOOOOOOOXXX",
"OOOOOOOOOOOOOOXXXXXXXXXX.............OOOOOOOOOOOOOOOOOOOOOOOOXXX",
"OOOOOOOOOOOOOOOOOOOOOOOOXXXXXXXXX....OOOOOOOOOOOOOOOOOOOOOOOOooo",
"OOOOOOOOOOOOOOOOOOOOOOOOXXXXXXXXX....OOOOOOOOOOOOOOOOOOOOOOOOooo",
"OOOOOOOOOOOOOOOOOOOOOOOOXXXXXXXXX....OOOOOOOOOOOOOOOOOOOOOOOOooo",
"OOOOOOOOOOOOOOOOOOOOOOOOXXXXXXXXX....OOOOOOOOOOOOOOOOOOOOOOOOooo",
"                                                                ",
"                                                                ",
"                                                                "
};
