/* XPM */
static char *_e7fec51970c4fbedb2b240f67211f4cJ2qAo6Kyyu34tE0r[] = {
/* columns rows colors chars-per-pixel */
"64 64 15 1 ",
"  c black",
". c #6F402B",
"X c #7C4830",
"o c gray43",
"O c #ED1C24",
"+ c #9C5A3C",
"@ c #A39A00",
"# c #CCC100",
"$ c #FFF200",
"% c #00B7EF",
"& c gray55",
"* c gray61",
"= c #99D9EA",
"- c gray80",
"; c white",
/* pixels */
"                                                                ",
"                                                                ",
"                                                                ",
"o########$$$$$$$$$########$$$$$$$$$$$$$$$$$$$$$$$$#########@@@@@",
"o########$$$$$$$$$########$$$$$$$$$$$$$$$$$$$$$$$$#########@@@@@",
"o########$$$$$$$$$########$$$$$$$$$$$$$$$$$$$$$$$$#########@@@@@",
"o########$$$$$$$$$########$$$$$$$$$$$$$$$$$$$$$$$$#########@@@@@",
"=%%%%%%%%;;;;;;;;;$$$$$$$$%%%%%%%%;;;;;;;;######################",
"=%%%%%%%%;;;;;;;;;$$$$$$$$%%%%%%%%;;;;;;;;######################",
"=%%%%%%%%;;;;;;;;;$$$$$$$$%%%%%%%%;;;;;;;;######################",
"=%%%%%%%%;;;;;;;;;$$$$$$$$%%%%%%%%;;;;;;;;######################",
"=;;;;;;;;;;;;;;;;;$$$$$$$$;;;;;;;;;;;;;;;;$$$$$$$$@@@@@@@@@#####",
"=;;;;;;;;;;;;;;;;;$$$$$$$$;;;;;;;;;;;;;;;;$$$$$$$$@@@@@@@@@#####",
"=;;;;;;;;;;;;;;;;;$$$$$$$$;;;;;;;;;;;;;;;;$$$$$$$$@@@@@@@@@#####",
"=;;;;;;;;;;;;;;;;;$$$$$$$$;;;;;;;;;;;;;;;;$$$$$$$$@@@@@@@@@#####",
"=$$$$$$$$#########$$$$$$$$$$$$$$$$        $$$$$$$$##############",
"=$$$$$$$$#########$$$$$$$$$$$$$$$$        $$$$$$$$##############",
"=$$$$$$$$#########$$$$$$$$$$$$$$$$        $$$$$$$$##############",
"=$$$$$$$$                         $$$$$$$$######################",
"=$$$$$$$$                         $$$$$$$$######################",
"=$$$$$$$$                         $$$$$$$$######################",
"=$$$$$$$$                         $$$$$$$$######################",
"=########$$$$$$$$$;;;;;;;;$$$$$$$$$$$$$$$$$$$$$$$$#########;;;;;",
"=########$$$$$$$$$;;;;;;;;$$$$$$$$$$$$$$$$$$$$$$$$#########;;;;;",
"=########$$$$$$$$$;;;;;;;;$$$$$$$$$$$$$$$$$$$$$$$$#########;;;;;",
"=########$$$$$$$$$;;;;;;;;$$$$$$$$$$$$$$$$$$$$$$$$#########;;;;;",
"o$$$$$$$$#########$$$$$$$$$$$$$$$$########$$$$$$$$#########$$$$$",
"o$$$$$$$$#########$$$$$$$$$$$$$$$$########$$$$$$$$#########$$$$$",
"o$$$$$$$$#########$$$$$$$$$$$$$$$$########$$$$$$$$#########$$$$$",
"o$$$$$$$$#########$$$$$$$$$$$$$$$$########$$$$$$$$#########$$$$$",
"o;;;;;;;;;;;;;;;;;OOOOOOOO;;;;;;;;;;;;;;;;;;;;;;;;---------$$$$$",
"o;;;;;;;;;;;;;;;;;OOOOOOOO;;;;;;;;;;;;;;;;;;;;;;;;---------$$$$$",
"o;;;;;;;;;;;;;;;;;OOOOOOOO;;;;;;;;;;;;;;;;;;;;;;;;---------$$$$$",
"o;;;;;;;;;;;;;;;;;OOOOOOOO;;;;;;;;;;;;;;;;;;;;;;;;---------$$$$$",
"o+++++++++++++++++OOOOOOOO++++++++++++++++++++++++XXXXXXXXX$$$$$",
"o+++++++++++++++++OOOOOOOO++++++++++++++++++++++++XXXXXXXXX$$$$$",
"o+++++++++++++++++OOOOOOOO++++++++++++++++++++++++XXXXXXXXX$$$$$",
"o+++++++++++++++++OOOOOOOO++++++++++++++++++++++++XXXXXXXXX$$$$$",
"*$$$$$$$$XXXXXXXXXXXXXXXXX........XXXXXXXXXXXXXXXXXXXXXXXXX$$$$$",
"*$$$$$$$$XXXXXXXXXXXXXXXXX........XXXXXXXXXXXXXXXXXXXXXXXXX$$$$$",
"*$$$$$$$$XXXXXXXXXXXXXXXXX........XXXXXXXXXXXXXXXXXXXXXXXXX$$$$$",
"*$$$$$$$$XXXXXXXXXXXXXXXXX........XXXXXXXXXXXXXXXXXXXXXXXXX$$$$$",
"==========&&&&oooo$$$$$$$$===========ooooo$$$$$$$$oooooooooooooo",
"==========&&&&oooo$$$$$$$$===========ooooo$$$$$$$$oooooooooooooo",
"==========&&&&oooo$$$$$$$$===========ooooo$$$$$$$$oooooooooooooo",
"==========&&&&oooo$$$$$$$$===========ooooo$$$$$$$$oooooooooooooo",
"&&&&&oooooooooooo;;;;;;;;;=======&&&&ooooo;;;;;;;;&&&&&&oooooooo",
"&&&&&oooooooooooo;;;;;;;;;=======&&&&ooooo;;;;;;;;&&&&&&oooooooo",
"&&&&&oooooooooooo;;;;;;;;;=======&&&&ooooo;;;;;;;;&&&&&&oooooooo",
"ooooo&&&&&&&&&&&&OOOOOOOOO=======&&&&oooooOOOOOOOO===========&&&",
"ooooo&&&&&&&&&&&&OOOOOOOOO=======&&&&oooooOOOOOOOO===========&&&",
"ooooo&&&&&&&&&&&&OOOOOOOOO=======&&&&oooooOOOOOOOO===========&&&",
"ooooo&&&&&&&&&&&&OOOOOOOOO=======&&&&oooooOOOOOOOO===========&&&",
"==============&&&;;;;;;;;;ooooooooooo=====;;;;;;;;===========&&&",
"==============&&&;;;;;;;;;ooooooooooo=====;;;;;;;;===========&&&",
"==============&&&;;;;;;;;;ooooooooooo=====;;;;;;;;===========&&&",
"==============&&&;;;;;;;;;ooooooooooo=====;;;;;;;;===========&&&",
"=========                 &&&&&&&o                ===========***",
"=========                 &&&&&&&o                ===========***",
"=========                 &&&&&&&o                ===========***",
"=========                 &&&&&&&o                ===========***",
"                                                                ",
"                                                                ",
"                                                                "
};
