/* XPM */
static char *aff5ce67399f4e67fcfe20540b087e29oubiSymA9RWsA6yB[] = {
/* columns rows colors chars-per-pixel */
"64 64 5 1 ",
"  c None",
". c #30471C",
"X c #406123",
"o c #5C7035",
"O c #658F29",
/* pixels */
"                    oooooo                                      ",
"                    oooooo                                      ",
"                    OOOOOO                           XXXXXX     ",
"                    OOOOOO                           XXXXXX     ",
"                    OOOOOO                           XXXXXX     ",
"                    OOOOOO                           XXXXXX     ",
"    OOOOO           oooooo           OOOOO      XXXXX           ",
"    OOOOO           oooooo           OOOOO      XXXXX           ",
"    OOOOO           oooooo           OOOOO      XXXXX           ",
"    OOOOO           oooooo           OOOOO      XXXXX           ",
"    ooooo......     ooooooooooo      ooooo      .....      XXXXX",
"    ooooo......     ooooooooooo      ooooo      .....      XXXXX",
"    ooooo......     ooooooooooo      ooooo      .....      XXXXX",
"    ooooo......     ooooooooooo      ooooo      .....      XXXXX",
"    ooooooooooo     oooooo.....      ooooo      .....XXXXXX     ",
"    ooooooooooo     oooooo.....      ooooo      .....XXXXXX     ",
"    ooooooooooo     oooooo.....      ooooo      .....XXXXXX     ",
"    ooooooooooo     oooooo.....      ooooo      .....XXXXXX     ",
"....     oooooo     XXXXXX.....      XXXXX......oooooooooooOOOOO",
"....     oooooo     XXXXXX.....      XXXXX......oooooooooooOOOOO",
"....     oooooo     XXXXXX.....      XXXXX......oooooooooooOOOOO",
"....     oooooo     XXXXXX.....      XXXXX......oooooooooooOOOOO",
"....     oooooo     XXXXXX.....      .....oooooo.....      OOOOO",
"....     oooooo     XXXXXX.....      .....oooooo.....      OOOOO",
"....     oooooo     XXXXXX.....      .....oooooo.....      OOOOO",
"....     oooooo     XXXXXX.....      .....oooooo.....      OOOOO",
"oooo.....oooooo.....XXXXXXOOOOOoooooo.....oooooo.....      ooooo",
"oooo.....oooooo.....XXXXXXOOOOOoooooo.....oooooo.....      ooooo",
"oooo.....oooooo.....XXXXXXOOOOOoooooo.....oooooo.....      ooooo",
"oooo.....oooooo.....XXXXXXOOOOOoooooo.....oooooo.....      ooooo",
"oooo.....oooooo.....XXXXXXOOOOO      oooooooooooOOOOOOOOOOOooooo",
"oooo.....oooooo.....XXXXXXOOOOO      oooooooooooOOOOOOOOOOOooooo",
"oooo.....oooooo.....XXXXXXOOOOO      oooooooooooOOOOOOOOOOOooooo",
"oooo.....oooooo.....XXXXXXOOOOO      oooooooooooOOOOOOOOOOOooooo",
"oooo.....oooooo.....XXXXXXOOOOO      oooooooooooOOOOOOOOOOOooooo",
"XXXX.....      ...........OOOOOoooooo.....      ...........ooooo",
"XXXX.....      ...........OOOOOoooooo.....      ...........ooooo",
"XXXX.....      ...........OOOOOoooooo.....      ...........ooooo",
"XXXX.....      ...........OOOOOoooooo.....      ...........ooooo",
"XXXX.....      .....      .....oooooo.....      .....ooooooooooo",
"XXXX.....      .....      .....oooooo.....      .....ooooooooooo",
"XXXX.....      .....      .....oooooo.....      .....ooooooooooo",
"XXXX.....      .....      .....oooooo.....      .....ooooooooooo",
"....XXXXX      .....      .....oooooo.....      .....ooooooooooo",
"....XXXXX      .....      .....oooooo.....      .....ooooooooooo",
"....XXXXX      .....      .....oooooo.....      .....ooooooooooo",
"....XXXXX      .....      .....oooooo.....      .....ooooooooooo",
".........oooooo.....      .....oooooo.....OOOOOO.....oooooo.....",
".........oooooo.....      .....oooooo.....OOOOOO.....oooooo.....",
".........oooooo.....      .....oooooo.....OOOOOO.....oooooo.....",
".........oooooo.....      .....oooooo.....OOOOOO.....oooooo.....",
"ooooOOOOOOOOOOO.....      .....OOOOOOoooooOOOOOO.....oooooo.....",
"ooooOOOOOOOOOOO.....      .....OOOOOOoooooOOOOOO.....oooooo.....",
"ooooOOOOOOOOOOO.....      .....OOOOOOoooooOOOOOO.....oooooo.....",
"ooooOOOOOOOOOOO.....      .....OOOOOOoooooOOOOOO.....oooooo.....",
"XXXXXXXXX......     XXXXXX.....oooooo.....oooooo................",
"XXXXXXXXX......     XXXXXX.....oooooo.....oooooo................",
"XXXXXXXXX......     XXXXXX.....oooooo.....oooooo................",
"XXXXXXXXX......     XXXXXX.....oooooo.....oooooo................",
"ooooXXXXX......XXXXX...........XXXXXX.....XXXXXXXXXXXXXXXXX.....",
"ooooXXXXX......XXXXX...........XXXXXX.....XXXXXXXXXXXXXXXXX.....",
"ooooXXXXX......XXXXX...........XXXXXX.....XXXXXXXXXXXXXXXXX.....",
"ooooXXXXX......XXXXX...........XXXXXX.....XXXXXXXXXXXXXXXXX.....",
"                                                                "
};
